<svg width="1369" height="1183" viewBox="0 0 1369 1183" fill="none" xmlns="http://www.w3.org/2000/svg">
  <style>
    svg > path {
      opacity: 0;
      transform-box: fill-box;
      transform-origin: center;
      animation: pieceIn 0.78s cubic-bezier(0.22, 1, 0.36, 1) forwards;
    }

    /* Counterclockwise reveal through the exact exported layer order. */
    svg > path:nth-of-type(1) { animation-delay: 0.10s; }
    svg > path:nth-of-type(7) { animation-delay: 0.28s; }
    svg > path:nth-of-type(3) { animation-delay: 0.46s; }
    svg > path:nth-of-type(4) { animation-delay: 0.64s; }
    svg > path:nth-of-type(5) { animation-delay: 0.82s; }
    svg > path:nth-of-type(6) { animation-delay: 1.00s; }
    svg > path:nth-of-type(2) { animation-delay: 1.18s; }

    svg > path:nth-of-type(8) {
      animation-name: frameIn;
      animation-duration: 0.95s;
      animation-delay: 1.62s;
      animation-timing-function: cubic-bezier(0.16, 1, 0.3, 1);
    }

    @keyframes pieceIn {
      0% {
        opacity: 0;
        transform: translateY(10px) scale(0.965);
        filter: blur(2px);
      }
      100% {
        opacity: 1;
        transform: translateY(0) scale(1);
        filter: blur(0);
      }
    }

    @keyframes frameIn {
      0% {
        opacity: 0;
        transform: scale(0.94);
        filter: blur(2px);
      }
      100% {
        opacity: 1;
        transform: scale(1);
        filter: blur(0);
      }
    }
  </style>
<path d="M718.682 396.639C717.911 397.924 714.056 398.952 710.202 398.952C702.75 398.695 682.963 403.577 675.768 407.175C673.199 408.459 669.344 409.487 667.288 409.487C655.725 409.487 611.527 438.267 596.88 455.227C590.969 461.908 583.26 470.645 579.663 475.014C571.954 483.75 557.307 513.558 553.195 529.233C550.369 540.283 547.799 563.667 549.598 563.667C550.112 563.667 556.279 558.271 562.96 551.332C584.545 529.49 639.536 496.342 660.864 492.487C664.205 491.973 668.316 490.432 669.858 489.404C673.969 486.063 716.626 481.438 741.551 481.438C765.449 481.438 805.793 488.89 818.384 495.828C822.239 497.884 825.322 499.168 825.322 498.397C825.322 496.342 862.839 516.642 875.431 525.122C902.412 543.623 928.366 570.862 946.353 599.642L956.889 616.345L955.347 594.503C953.805 571.89 943.27 534.373 933.505 515.871C930.421 510.475 928.109 504.822 928.109 503.28C928.109 501.995 922.969 494.029 916.545 486.063C910.121 477.84 904.982 470.645 904.982 469.874C904.982 469.103 902.155 465.506 898.558 461.908C894.96 458.311 892.134 454.713 892.134 453.685C892.134 451.116 873.632 438.781 870.805 439.809C869.521 440.066 869.264 439.295 870.034 438.01C870.805 436.726 867.465 433.899 862.582 431.586C857.7 429.274 853.075 426.19 852.304 424.905C850.505 421.822 824.808 409.487 820.44 409.487C818.641 409.487 814.787 408.202 811.703 406.404C808.62 404.605 803.223 402.806 799.626 402.549C796.028 402.035 791.403 401.007 789.347 399.98C787.291 399.209 776.756 398.181 766.22 397.667C755.685 397.153 741.038 396.125 733.586 395.354C726.134 394.583 719.709 395.097 718.682 396.639Z" fill="#156BEC"/>
<path d="M311.799 702.279C318.223 742.365 320.022 751.616 323.105 758.811C324.133 761.638 327.988 770.888 331.328 779.368C337.238 794.529 350.344 817.142 354.455 818.684C355.483 819.198 356.511 820.74 356.511 822.282C356.511 828.963 391.972 863.139 413.043 877.015C452.359 902.712 479.854 910.421 532.532 910.421C565.938 910.421 573.39 909.65 589.065 904.511C609.879 897.573 638.659 883.44 651.765 873.675C664.099 864.681 693.136 836.672 693.136 833.845C693.136 832.817 695.963 827.935 699.303 823.567C710.867 808.149 727.056 762.923 726.028 749.303C725.514 742.879 724.743 743.136 708.554 758.04C660.502 802.238 610.136 823.823 550.006 826.136C532.789 826.907 508.378 826.136 496.043 824.337C472.659 821.511 433.087 809.433 419.467 801.21C415.356 798.641 407.133 794.272 401.48 791.189C379.124 779.368 325.675 727.975 325.675 718.21C325.675 715.898 324.647 713.842 323.362 713.328C322.334 712.814 318.737 707.932 315.653 702.279L310 692L311.799 702.279Z" fill="#156BEC"/>
<path d="M564.508 242.097C538.297 246.722 536.755 246.979 533.158 249.292C531.359 250.576 528.789 250.833 527.505 249.805C526.22 249.035 524.164 249.805 523.393 251.347C522.365 252.632 520.053 253.403 518.254 252.632C516.455 252.118 514.142 252.118 513.115 253.146C512.087 254.174 510.288 255.202 509.003 255.202C507.718 255.459 506.433 255.716 506.176 255.973C505.663 256.487 502.836 257.001 500.009 257.514C496.926 258.285 491.272 260.084 487.161 261.626C483.05 263.425 479.195 264.966 478.424 265.223C477.653 265.223 474.57 266.765 471.743 268.564C468.659 270.106 465.576 270.62 464.548 269.849C463.777 269.078 463.006 269.849 463.006 271.648C463.006 273.446 462.235 274.217 461.207 273.446C459.409 271.391 411.356 296.059 404.161 302.74C401.591 305.31 398.765 306.852 398.251 306.081C397.48 305.567 393.882 307.88 390.028 311.477C386.173 315.075 382.062 317.901 381.034 317.901C380.006 317.901 372.554 324.069 364.588 331.778C356.365 339.487 349.941 344.883 349.941 344.112C349.941 343.341 344.802 347.71 338.378 353.877C332.211 360.044 327.585 365.954 328.099 366.982C328.87 368.01 326.557 370.579 323.217 372.635C315.765 377.518 286.728 415.805 280.817 428.397C278.505 433.279 275.935 437.905 274.907 438.675C271.567 441.245 250.238 486.471 243.557 504.973C239.96 515.508 233.793 538.635 229.938 556.366C223.771 585.146 223 594.654 223 637.824C223 678.682 224.028 691.016 228.91 713.629C265.913 887.338 391.827 1016.85 558.854 1053.34C581.211 1058.22 592.774 1058.99 639.028 1058.99C684.511 1058.99 696.845 1058.22 717.402 1053.59C882.632 1016.59 1001.86 893.248 1036.3 723.908C1048.89 662.236 1042.46 560.991 1022.93 514.48C1021.14 510.112 1019.59 506.001 1019.34 504.716C1018.82 503.688 1018.31 502.403 1018.05 501.632C1017.8 500.861 1017.28 499.576 1017.02 498.292C1016.77 497.264 1015.23 493.923 1013.43 490.583C1011.63 487.499 1010.86 484.929 1011.37 484.929C1013.94 484.929 985.675 431.737 973.084 413.236C966.402 403.214 955.61 389.595 949.443 383.171C943.532 376.747 938.393 370.579 938.393 369.552C938.393 365.954 929.142 359.016 926.83 360.815C925.802 362.1 925.545 361.586 926.316 360.044C928.628 355.932 870.297 306.595 866.186 309.165C865.158 309.679 863.616 308.394 862.845 306.081C862.074 304.025 860.276 302.74 858.991 303.511C857.706 304.282 856.164 303.511 855.393 301.713C854.365 298.629 798.347 269.335 791.409 268.05C789.61 267.793 785.241 265.994 781.644 263.939C778.046 262.14 774.963 260.598 774.706 260.855C774.192 261.112 773.421 261.112 772.65 261.112C771.879 260.855 770.337 260.341 768.796 260.084C767.511 259.827 765.712 259.056 764.941 258.799C764.17 258.542 762.628 257.771 761.087 257.514C759.802 257.257 758.26 256.744 758.003 256.23C757.489 255.973 755.433 255.459 753.378 254.945C747.467 253.403 738.731 251.347 732.306 249.549C728.966 248.778 724.598 247.75 722.542 247.493C720.486 247.236 715.861 246.208 712.263 245.18C688.622 238.756 595.344 236.7 564.508 242.097ZM705.582 274.217C720.743 277.301 740.786 282.697 750.294 286.038C759.802 289.635 770.337 293.49 773.935 294.775C786.526 298.886 799.375 305.053 800.916 307.623C801.944 309.165 803.743 309.679 805.028 308.908C806.313 307.88 807.341 308.651 807.341 310.192C807.341 311.734 808.625 312.248 809.91 311.477C811.452 310.706 812.48 311.22 812.48 312.505C812.48 314.047 814.022 315.332 815.82 315.332C817.876 315.332 821.988 317.644 825.328 320.471C828.669 323.298 832.523 325.61 833.808 325.61C835.35 325.61 845.115 332.035 855.907 340.001C886.229 362.614 924.517 402.957 945.845 434.564C962.034 458.976 979.251 488.784 981.05 496.493C981.563 497.778 986.189 511.911 991.585 527.586C1003.66 563.304 1003.41 561.762 1006.75 583.861C1013.68 628.316 1012.66 677.14 1004.18 716.199C1003.41 719.796 1002.12 726.991 1001.35 732.388C1000.58 737.784 997.752 747.548 995.183 754.23C992.613 760.911 990.3 767.078 990.043 768.106C989.529 770.675 987.731 776.072 981.82 790.976C979.251 797.657 977.966 803.824 978.737 804.595C979.765 805.366 978.994 806.137 977.195 806.137C975.396 806.137 974.882 807.422 975.653 808.706C976.424 810.248 975.91 811.276 974.368 811.276C972.827 811.276 972.313 812.304 973.084 813.846C973.854 815.131 973.341 816.415 971.799 816.415C970.257 816.415 969.743 817.7 970.514 818.985C971.285 820.527 970.771 821.555 969.229 821.555C967.687 821.555 967.173 822.583 967.944 824.124C968.715 825.409 968.201 826.694 966.659 826.694C965.118 826.694 964.604 827.979 965.375 829.264C966.145 830.805 965.632 831.833 964.09 831.833C962.548 831.833 961.777 832.861 962.805 834.403C963.576 835.688 962.034 839.028 959.207 841.855C956.381 844.682 954.839 847.508 955.61 848.279C956.381 849.05 955.096 850.335 952.783 851.363C950.471 852.134 949.186 853.932 949.957 854.96C950.728 855.988 949.443 857.787 947.13 858.558C945.074 859.329 943.789 861.127 944.56 862.412C945.331 863.697 944.303 865.496 941.991 866.267C939.935 867.038 938.65 868.836 939.421 870.121C940.192 871.406 939.164 873.205 936.851 873.976C934.796 874.747 933.511 876.545 934.539 877.83C935.31 879.115 933.254 882.199 930.17 884.511C926.83 886.567 924.26 889.394 924.26 890.422C924.26 891.449 919.635 896.846 913.981 902.242C908.328 907.895 906.015 910.722 908.842 908.666C911.926 906.61 911.412 907.638 907.557 911.236C903.96 914.319 899.077 919.716 896.508 922.799C893.938 925.626 892.653 926.397 893.681 924.341C895.48 921.001 894.966 921.001 891.368 924.084C889.056 925.883 887.771 928.453 888.542 929.737C889.313 931.022 888.542 931.793 886.743 931.536C884.944 931.022 883.402 932.564 883.145 934.62C883.145 936.675 881.604 938.474 879.805 938.474C877.749 938.474 874.666 940.787 872.61 943.357C870.554 946.183 869.012 947.468 869.012 945.926C868.755 944.641 866.443 946.44 863.873 949.781C861.046 953.121 858.734 954.92 858.734 954.149C858.734 953.378 854.108 955.691 848.455 959.288C842.802 963.143 838.176 966.74 838.176 967.254C838.176 967.768 839.461 967.511 841.26 966.483C843.059 965.456 843.316 965.713 842.288 967.768C841.26 969.31 839.204 970.081 837.919 969.31C834.836 967.254 824.814 974.449 827.384 977.019C828.412 978.304 827.641 978.304 825.585 977.019C823.272 975.734 820.446 977.019 817.105 981.131C814.279 984.471 812.737 985.756 813.765 983.957C815.05 981.387 814.022 981.387 808.882 983.7C805.285 985.499 802.972 987.812 803.743 988.84C804.514 990.124 802.972 990.381 800.659 989.353C797.576 988.326 796.805 988.583 798.09 990.638C799.375 992.694 798.347 993.208 795.52 991.923C792.437 990.895 791.666 991.152 792.95 993.208C794.235 995.264 793.207 995.778 790.381 994.493C787.04 993.208 786.526 993.722 788.068 996.292C789.353 998.347 789.096 999.118 787.297 997.833C784.214 996.035 760.059 1004.77 762.628 1007.08C763.399 1008.11 761.601 1008.11 758.26 1007.34C753.892 1006.06 753.121 1006.57 754.663 1009.14C755.947 1011.2 755.69 1011.97 754.149 1010.94C752.607 1009.91 747.724 1009.91 743.099 1010.68C737.189 1011.97 735.904 1012.99 738.474 1014.79C740.786 1016.59 740.529 1016.85 736.932 1015.82C729.994 1013.51 713.291 1016.85 717.916 1019.68C719.715 1020.96 717.145 1021.22 711.749 1020.19C705.068 1019.16 700.186 1019.93 695.817 1023.02C692.22 1025.33 687.851 1027.13 686.053 1026.87C684.254 1026.87 685.025 1025.84 687.851 1024.56L692.991 1022.25H687.851C685.025 1021.99 679.372 1023.79 675.26 1025.84C671.406 1027.9 664.981 1029.44 661.127 1029.44C655.474 1029.18 655.731 1028.67 663.44 1027.13C669.35 1025.84 658.3 1024.81 632.604 1024.56C575.3 1023.79 571.189 1023.79 572.731 1020.96C573.759 1019.68 570.161 1019.16 564.251 1020.19C558.598 1021.22 555.771 1020.96 557.57 1019.68C562.195 1016.85 545.492 1013.51 538.554 1015.82C535.214 1016.85 534.7 1016.59 536.755 1015.05C540.61 1012.22 517.997 1005.54 513.885 1008.11C512.087 1009.4 511.83 1008.63 513.115 1006.57C514.656 1004 513.885 1003.49 509.774 1004.51C506.176 1005.54 504.635 1005.03 505.919 1003.23C506.947 1001.43 505.919 1001.17 502.579 1002.46C500.009 1003.49 498.724 1003.49 499.752 1002.46C500.523 1001.43 495.641 997.833 488.446 994.75C473.542 987.812 472.257 987.555 474.827 991.666C475.854 993.465 475.598 993.722 473.542 992.694C472 991.666 471.229 989.867 472 988.583C473.799 985.756 465.833 982.929 462.492 985.242C460.693 986.27 460.437 985.499 461.721 983.443C463.263 980.874 462.749 980.36 459.409 981.644C456.582 982.929 455.554 982.415 456.839 980.36C458.124 978.304 457.353 978.047 454.526 979.075C452.214 979.846 449.644 979.332 448.616 977.79C447.588 975.991 447.845 975.734 449.644 976.762C451.443 977.79 452.728 978.047 452.728 977.276C452.728 976.505 450.158 974.706 447.331 972.908C442.963 970.595 442.192 970.852 443.734 973.679C444.762 975.477 442.963 974.192 439.879 970.595C436.796 966.997 434.997 965.97 436.025 968.025C437.053 970.081 435.254 969.053 432.17 965.456C429.087 961.858 427.545 960.83 428.573 962.886C429.601 964.942 427.545 963.914 423.947 960.316C412.898 949.267 389.514 930.765 393.625 935.905C398.765 943.1 394.396 938.731 377.437 919.973C369.728 911.493 362.789 904.812 362.019 905.326C361.505 905.84 358.935 903.784 356.108 900.7C351.226 895.047 351.226 894.79 356.365 898.388C359.192 900.186 357.393 898.131 352.511 893.248C347.628 888.623 343.774 883.997 344.031 882.97C344.288 882.199 340.947 877.573 336.322 872.691C331.954 867.809 328.099 862.926 328.099 861.898C328.099 860.87 326.3 858.815 324.245 857.53C322.189 856.245 321.675 854.96 322.96 854.96C324.502 854.96 323.474 853.675 320.904 852.134C318.591 850.592 317.05 848.536 317.82 847.251C318.591 846.223 317.306 844.425 314.994 843.654C312.938 842.883 311.91 841.084 312.681 839.542C313.452 838.257 312.938 836.973 311.396 836.973C309.854 836.973 309.084 835.945 309.854 834.66C310.625 833.375 309.598 831.576 307.285 830.805C305.229 830.035 303.944 828.236 304.715 826.951C305.743 825.666 304.972 823.096 303.173 821.041C301.375 819.242 299.576 815.901 299.062 813.846C298.548 811.79 297.006 809.477 295.721 809.22C294.437 808.706 293.923 807.165 294.95 805.88C295.721 804.595 294.95 803.567 293.409 803.567C291.867 803.567 291.353 802.282 292.124 800.997C292.895 799.456 292.381 798.428 290.839 798.428C289.297 798.428 288.526 797.4 289.554 796.115C290.325 794.83 289.811 793.031 288.269 792.004C286.728 790.976 286.214 789.177 286.985 787.892C288.012 786.607 287.241 785.579 285.957 785.579C284.415 785.579 283.387 784.809 283.644 783.524C283.644 782.496 283.387 779.926 282.616 777.87C280.56 772.988 278.762 767.078 277.991 763.737C277.734 762.196 276.449 759.626 274.907 757.827C273.365 756.285 273.108 754.744 273.879 754.744C274.907 754.744 274.393 752.688 273.108 750.118C271.567 747.292 269.768 741.895 268.997 737.784C267.198 728.533 266.427 726.477 264.372 720.053C263.601 717.227 262.059 710.288 261.031 704.635C260.26 698.982 258.975 689.731 257.947 684.078C257.176 678.425 256.406 657.61 256.406 637.824C256.406 605.446 257.433 592.084 261.031 572.298C261.802 568.7 262.83 562.276 263.601 557.908C264.115 553.539 268.997 537.864 274.136 523.217C279.533 508.57 283.901 494.951 283.901 493.152C283.901 491.61 284.672 490.069 285.7 490.069C286.471 490.069 288.783 485.7 290.839 480.304C292.638 475.165 296.235 467.97 298.548 464.372C300.861 460.775 309.084 448.44 316.536 436.62C339.149 401.158 387.458 352.078 418.037 333.319C423.69 329.979 429.858 325.61 431.656 323.812C433.455 322.013 436.796 320.471 438.851 320.471C440.907 320.471 442.449 319.443 442.449 318.158C442.449 316.874 446.56 314.304 451.443 312.762C456.325 311.22 460.437 308.651 460.437 307.366C460.437 305.824 461.721 305.567 463.006 306.338C464.548 307.109 465.576 306.595 465.576 304.796C465.576 302.997 466.347 302.483 467.375 303.254C468.146 304.282 471.486 303.511 474.313 301.713C487.932 293.233 541.895 276.016 568.362 271.905C592.774 267.793 596.885 267.793 639.285 268.307C667.551 268.564 685.796 270.106 705.582 274.217Z" fill="#969696"/>
<path d="M610.505 315.075C609.991 315.589 605.365 316.617 599.969 317.131C588.149 318.158 577.87 319.7 576.071 320.728C575.3 320.985 573.759 321.499 572.217 321.756C570.932 322.013 567.848 323.041 565.793 323.812C553.972 328.951 540.353 332.805 539.068 331.521C538.297 330.493 537.526 331.264 537.526 333.062C537.526 334.861 536.498 335.632 535.214 334.861C533.929 333.833 532.387 334.09 531.873 335.118C530.845 337.688 511.316 347.196 508.746 346.682C507.461 346.425 506.69 347.196 506.69 348.48C506.69 349.765 503.864 351.564 500.266 352.335C496.669 353.363 493.842 355.162 493.842 356.446C493.842 357.988 492.043 359.016 489.988 359.016C487.932 359.016 485.105 361.329 483.564 364.155C482.022 366.982 479.966 369.038 478.938 368.781C475.855 367.753 464.034 378.288 442.449 401.672C439.622 404.756 437.31 408.353 437.31 410.152C437.31 411.694 436.282 412.979 434.74 412.979C433.455 412.979 432.17 414.778 432.17 416.833C432.17 418.889 430.885 420.688 429.344 420.688C428.059 420.688 427.545 421.716 428.316 423.257C429.087 424.542 428.83 425.827 427.545 425.827C425.232 425.827 417.009 443.301 415.211 451.781C414.697 454.093 412.898 459.233 411.356 463.344C409.557 467.456 408.016 472.595 407.759 474.651C407.502 476.706 406.474 483.131 405.189 488.784C403.39 498.292 403.133 530.669 404.932 542.747C405.189 545.573 407.245 553.025 409.043 559.449C413.155 573.84 413.412 575.638 413.669 578.208C414.183 582.576 430.372 610.843 432.427 610.843C433.712 610.843 434.74 612.384 434.74 614.44C434.74 618.809 467.889 654.527 472 654.527C473.799 654.527 475.855 656.326 476.882 658.381C477.653 660.437 479.966 662.236 482.279 662.236C484.334 662.236 486.133 663.264 486.133 664.805C486.133 666.09 487.932 667.375 489.988 667.375C492.043 667.375 493.842 668.66 493.842 670.202C493.842 671.487 494.87 672.257 496.155 671.487C497.44 670.459 498.981 670.716 499.495 671.744C500.266 673.799 517.483 682.279 521.594 683.05C522.622 683.05 525.706 684.592 528.533 686.134C531.359 687.675 534.443 689.217 535.728 689.474C536.755 689.731 538.297 690.245 539.582 690.502C540.61 690.759 542.666 691.273 543.95 691.787C545.492 692.044 547.034 692.558 547.805 692.815C548.576 693.329 550.889 693.843 552.944 694.357C555 694.614 559.882 695.898 563.994 696.926C568.619 698.211 570.932 697.697 570.932 695.641C570.932 694.1 569.904 693.586 568.362 694.357C567.077 695.127 565.793 694.614 565.793 693.072C565.793 691.53 564.765 691.016 563.223 691.787C561.938 692.558 560.653 692.044 560.653 690.502C560.653 688.96 559.625 688.446 558.084 689.217C556.799 689.988 555.514 689.474 555.514 688.189C555.514 686.648 553.715 685.363 551.659 685.363C549.604 685.363 547.805 684.078 547.805 682.793C547.805 681.251 546.263 680.223 544.721 680.223C540.867 680.223 519.539 658.638 519.539 655.041C519.539 653.756 517.74 651.7 515.427 650.929C513.372 650.158 512.344 648.36 513.115 646.818C513.885 645.533 513.372 644.248 511.83 644.248C510.288 644.248 509.774 642.963 510.545 641.679C511.316 640.137 510.802 639.109 509.26 639.109C507.718 639.109 507.204 637.824 507.975 636.539C508.746 634.997 508.232 633.97 506.433 633.97C504.635 633.97 504.121 633.199 504.892 632.171C505.92 631.4 505.406 629.087 503.864 627.031C502.322 625.233 501.808 623.691 502.836 623.691C503.864 623.691 503.607 622.149 502.065 620.35C498.211 615.982 493.071 587.202 493.071 571.013C493.071 563.818 495.898 541.462 497.697 533.753C500.78 520.905 501.294 519.62 501.551 518.849C502.065 518.592 502.322 517.307 502.579 516.022C502.579 514.737 503.607 512.682 504.892 511.654C505.92 510.626 506.69 508.313 506.69 506.514C506.69 504.716 510.802 496.236 515.684 487.756C520.824 479.276 524.421 471.824 524.164 471.31C521.594 468.74 580.954 409.381 590.718 405.27C595.087 403.214 598.17 400.644 597.656 399.617C596.885 398.589 598.684 397.561 601.768 397.561C604.594 397.561 607.678 395.762 608.449 393.706C609.734 390.623 615.901 387.282 622.325 385.997C630.034 384.713 642.625 378.545 641.598 377.004C640.827 375.719 642.368 375.205 645.195 375.719C648.022 376.233 654.446 374.434 659.328 371.864C664.468 369.295 667.808 368.524 666.78 370.322C665.752 371.864 667.037 371.607 669.35 369.809C671.663 367.753 675.003 367.239 676.545 368.267C678.344 369.295 678.858 369.038 678.087 367.496C677.059 365.954 680.399 364.926 686.053 364.926C691.192 364.926 704.297 364.669 714.833 364.155C743.87 363.127 767.768 366.982 794.492 376.49C796.548 377.261 798.861 378.031 799.632 378.288C800.403 378.288 805.028 380.601 809.91 383.171C818.904 387.796 818.904 387.796 813.765 382.657C810.938 380.087 807.855 378.031 806.827 378.545C805.799 379.316 803.486 377.261 801.43 374.434C799.632 371.607 797.062 370.066 796.291 370.836C795.263 371.864 793.978 370.579 792.951 368.267C792.18 365.954 790.381 364.926 789.096 365.697C787.811 366.468 786.012 365.183 785.242 363.127C784.471 360.815 782.672 359.787 781.387 360.558C780.102 361.329 778.303 360.044 777.533 357.988C776.762 355.675 774.963 354.648 773.678 355.418C772.393 356.189 771.365 355.675 771.365 354.648C771.365 353.363 767.254 350.793 762.372 348.994C757.489 347.196 753.378 344.626 753.378 343.341C753.378 341.799 752.35 341.542 750.808 342.313C749.523 343.084 748.238 342.57 748.238 341.028C748.238 339.487 747.211 338.716 746.183 339.487C745.155 340.001 738.988 338.202 732.82 335.375C726.396 332.292 720.743 329.722 719.972 329.722C719.201 329.465 717.146 328.437 715.604 327.409C713.805 326.124 712.263 325.867 712.263 326.638C712.263 327.409 706.867 326.124 700.186 324.069C686.567 319.957 680.656 318.672 663.44 316.617C648.022 314.818 611.79 313.79 610.505 315.075Z" fill="#969696"/>
<path d="M379.235 440.988C373.582 444.843 366.901 451.524 364.074 455.635C361.505 459.747 356.879 465.657 354.053 468.483C345.316 477.477 337.093 488.527 337.093 491.867C337.093 493.409 336.322 495.208 335.037 495.722C334.009 495.979 329.641 503.945 325.015 513.196C317.82 528.356 315.251 534.781 311.91 546.601C309.084 556.623 310.111 604.932 313.452 614.697C315.251 620.35 317.05 627.031 317.306 629.344C317.563 631.914 318.334 633.97 319.105 633.97C319.876 633.97 322.703 639.623 325.529 646.818C328.356 653.756 331.44 659.666 332.724 659.666C333.752 659.666 334.266 660.694 333.238 662.236C332.467 663.521 334.009 666.861 337.093 669.945C339.919 672.771 342.232 676.112 342.232 677.397C342.232 678.682 344.031 680.223 346.087 681.251C348.142 682.022 349.941 684.078 349.941 686.134C349.941 690.245 361.248 701.295 363.56 699.496C364.588 698.725 364.845 698.982 364.074 700.01C362.276 702.322 388.743 726.477 392.854 726.477C394.653 726.477 396.195 727.505 396.195 729.047C396.195 730.332 397.994 731.617 400.05 731.617C402.105 731.617 403.904 732.644 403.904 734.186C403.904 735.471 405.446 736.756 407.245 736.756C409.3 736.756 413.412 739.069 416.752 741.895C420.093 744.722 423.69 747.292 424.975 747.292C426.003 747.548 427.802 747.805 429.087 748.319C442.192 751.917 445.019 752.945 445.019 755C445.019 756.285 445.789 757.056 447.074 757.056C448.102 756.799 449.644 757.056 450.929 757.313C451.957 757.57 454.012 758.341 455.297 758.598C456.839 758.855 458.124 759.369 458.638 759.883C458.895 760.14 460.95 760.654 463.006 761.168C465.062 761.682 469.687 762.966 473.285 763.737C476.882 764.508 483.306 765.793 487.418 766.564C500.266 768.877 556.285 769.905 564.508 768.363L572.217 766.821L563.223 764.508C558.341 763.223 551.145 762.196 547.291 762.196C543.437 762.452 539.582 761.425 538.811 759.883C537.783 758.341 535.985 757.827 534.7 758.855C531.359 760.654 493.842 749.604 493.842 746.521C493.842 745.236 492.814 744.979 491.272 745.75C489.988 746.521 488.703 746.007 488.703 744.465C488.703 742.923 487.675 742.152 486.647 742.923C485.362 743.694 480.223 741.381 475.084 737.784C469.944 734.186 465.576 732.131 465.576 732.901C465.576 733.929 463.777 732.644 461.464 730.589C459.409 728.276 456.325 726.991 455.04 727.762C453.755 728.79 452.728 728.533 452.728 727.248C452.728 726.22 448.359 721.852 443.22 717.74C438.08 713.629 434.997 711.83 436.025 713.886C437.31 715.942 431.399 710.545 422.919 702.322C414.697 694.1 408.015 686.134 408.272 685.106C408.786 683.821 406.731 681.765 403.904 680.223C401.077 678.682 398.765 675.855 398.765 673.799C398.765 671.744 397.737 669.945 396.195 669.945C394.91 669.945 393.625 668.66 393.625 667.375C393.625 665.833 391.313 662.236 388.486 659.152C385.916 656.069 384.118 652.728 384.889 651.443C385.659 650.415 384.889 649.387 383.347 649.387C381.805 649.387 381.291 648.103 382.062 646.818C382.833 645.276 382.319 644.248 380.777 644.248C379.235 644.248 378.721 642.963 379.492 641.678C380.263 640.137 379.749 639.109 378.207 639.109C376.666 639.109 376.152 637.824 376.923 636.539C377.693 634.997 377.18 633.97 375.638 633.97C374.096 633.97 373.582 632.685 374.353 631.4C375.124 629.858 374.61 628.83 373.325 628.83C371.783 628.83 370.755 628.059 371.012 626.774C371.269 625.747 370.241 622.406 368.443 619.065C366.644 615.982 365.873 613.412 366.901 613.412C367.672 613.412 367.158 611.613 365.359 609.558C363.56 607.502 363.046 605.703 364.074 605.703C365.102 605.703 364.588 603.904 362.789 601.849C361.248 599.793 360.477 596.966 361.248 595.682C362.276 594.397 361.762 592.598 360.477 591.827C355.337 588.487 355.851 523.731 361.505 500.347C362.276 496.75 363.56 491.61 364.074 488.784C364.845 485.957 368.186 477.477 371.783 470.282C375.381 462.83 378.464 455.378 378.721 453.579C379.235 451.781 380.006 449.725 380.777 448.954C383.09 446.641 391.313 433.536 390.285 433.536C389.771 433.536 384.632 436.877 379.235 440.988Z" fill="#969696"/>
<path d="M723.827 526.558C719.715 527.586 713.291 528.613 709.693 528.357C706.096 528.1 701.214 528.87 698.901 529.898C696.331 530.926 692.477 531.183 690.421 530.412C688.365 529.384 686.053 529.898 685.282 531.183C683.74 533.496 698.387 535.038 711.235 534.01C714.062 534.01 722.028 534.781 729.223 536.322C736.161 537.864 745.412 539.663 749.523 540.434C753.892 541.205 758.774 543.261 760.573 544.545C762.115 546.087 763.656 546.344 763.656 545.316C763.656 544.288 765.198 544.802 767.254 546.344C769.31 548.143 773.164 549.685 775.734 550.199C778.56 550.713 786.269 554.824 793.207 559.192C800.145 563.561 807.341 567.158 809.139 567.158C810.938 567.158 812.48 568.186 812.48 569.728C812.48 571.013 814.022 572.298 815.82 572.298C817.619 572.298 820.446 574.61 822.245 577.694C824.043 580.778 826.099 582.576 826.87 582.062C827.384 581.292 835.093 588.23 843.83 597.223C866.443 620.093 870.297 624.719 869.526 626.774C869.269 628.059 870.04 628.83 871.582 628.83C872.867 628.83 874.152 630.629 874.152 632.685C874.152 634.74 875.437 636.539 876.721 636.539C878.263 636.539 879.291 638.338 879.291 640.394C879.291 642.449 880.576 644.248 882.118 644.248C883.402 644.248 883.916 645.276 883.145 646.818C882.375 648.103 882.889 649.387 884.43 649.387C885.972 649.387 886.486 650.415 885.715 651.957C884.944 653.242 885.458 654.527 887 654.527C888.542 654.527 889.056 655.555 888.285 657.096C887.514 658.381 888.028 659.666 889.57 659.666C891.111 659.666 891.625 660.694 890.854 662.236C890.084 663.521 890.597 664.805 892.139 664.805C893.681 664.805 894.452 665.833 893.681 667.118C892.653 668.403 893.167 669.945 894.709 670.459C895.994 670.716 897.536 674.056 898.306 677.654C898.82 681.251 899.591 684.335 900.105 684.592C900.362 685.106 900.619 686.134 900.876 687.161C901.133 688.446 901.904 690.502 902.932 692.044C903.96 693.586 905.502 699.496 906.529 704.892C907.3 710.545 908.585 719.539 909.613 725.192C912.954 746.521 910.127 798.428 904.988 808.706C904.731 809.477 904.217 811.019 903.96 812.561C902.161 823.096 899.077 831.833 897.022 831.833C895.48 831.833 895.223 833.118 895.994 834.403C896.765 835.945 896.251 836.973 894.966 836.973C893.424 836.973 892.396 837.744 892.396 838.771C893.167 843.654 891.882 847.251 888.028 850.849C885.715 853.161 885.201 854.96 887 854.96C888.542 854.96 889.056 856.502 888.028 858.044C887 859.843 892.139 855.731 899.591 848.536C906.786 841.598 912.697 834.66 912.697 833.118C912.697 831.576 914.752 828.493 917.322 826.18C924.517 819.242 928.371 813.846 926.316 813.846C925.288 813.846 926.059 812.304 928.371 810.505C931.712 807.935 942.762 787.121 942.762 783.01C942.762 782.239 944.303 778.898 946.102 775.301C948.158 771.703 949.957 768.106 950.214 766.821C950.471 765.793 950.728 764.765 951.241 764.251C951.498 763.994 952.012 761.425 952.269 758.598C952.526 755.771 953.811 748.833 954.839 743.18C957.923 728.019 956.895 692.815 953.04 682.793C950.728 676.626 945.588 655.812 946.102 654.784C946.359 654.27 945.588 652.985 944.303 652.214C940.449 649.387 933.254 634.74 935.053 632.942C935.823 632.171 935.053 631.4 933.254 631.4C931.455 631.4 930.427 630.629 931.198 629.858C931.969 629.087 929.399 624.976 925.288 620.35C921.176 615.982 918.35 611.87 919.121 611.357C919.635 610.843 917.065 607.502 913.21 603.905C909.356 600.564 907.814 598.251 909.613 599.279C915.009 602.106 912.954 599.279 900.619 587.716C893.938 581.292 890.084 578.465 891.882 581.292C893.938 584.118 891.882 582.576 887.257 577.951C882.889 573.583 878.263 569.728 876.978 569.728C875.437 569.728 873.381 568.186 872.353 566.131C871.325 564.075 869.526 562.276 868.498 562.019C858.991 559.963 856.421 558.422 857.963 555.852C858.734 554.31 858.734 553.796 857.449 554.824C855.65 556.623 836.121 548.143 833.037 544.288C832.266 543.518 829.44 542.233 826.613 541.976C823.786 541.462 821.217 539.92 820.703 538.892C820.189 537.607 818.133 537.35 816.077 538.121C814.022 538.892 812.48 538.121 812.48 536.579C812.48 535.038 810.938 534.524 808.882 535.295C806.827 536.066 804.514 535.295 803.486 534.01C802.715 532.468 800.659 531.697 799.375 532.468C798.09 533.496 795.777 533.239 793.978 532.211C790.381 529.898 788.582 529.641 757.232 527.329C744.641 526.558 733.591 525.273 732.82 525.016C732.05 524.502 728.195 525.273 723.827 526.558Z" fill="#969696"/>
<path d="M700.957 600.307C696.845 601.849 697.359 602.62 704.811 605.703C709.694 607.759 715.347 610.843 717.402 612.641C719.458 614.44 726.139 619.322 732.307 623.691C738.474 628.059 744.127 633.456 744.898 636.025C745.926 638.338 749.009 642.963 751.836 646.047C754.92 649.13 756.975 652.728 756.975 653.756C756.718 654.784 759.031 660.437 761.858 666.09C764.941 671.744 767.511 677.14 767.768 678.168C768.025 679.452 768.539 680.737 768.796 681.508C769.053 682.279 769.824 683.821 770.081 685.363C770.337 686.648 770.851 688.189 771.365 688.446C775.477 693.843 775.734 767.849 771.365 771.96C771.108 772.474 770.594 773.759 770.337 775.044C770.337 776.329 769.31 778.127 768.282 779.155C767.254 780.183 767.254 782.496 768.025 784.552C768.796 786.607 767.768 788.149 765.969 788.149C764.17 788.149 763.399 788.92 764.17 789.691C765.198 790.462 764.17 795.087 762.115 799.97C760.059 804.852 759.288 808.706 760.059 808.706C761.087 808.706 758.774 811.533 754.92 815.131C751.065 818.728 748.752 821.555 749.78 821.555C750.808 821.555 749.523 823.353 746.697 825.666C744.127 827.722 743.613 829.007 745.669 827.979C747.724 826.951 746.697 828.75 743.099 831.833C739.502 834.917 738.474 836.716 740.529 835.688C742.585 834.66 741.557 836.459 737.96 839.799C734.362 843.14 733.077 844.939 735.39 843.654C737.446 842.369 731.536 848.536 722.028 857.273C712.52 866.267 701.728 877.059 697.873 881.428C694.276 886.053 691.963 887.852 692.991 885.796C693.762 883.74 692.22 885.025 689.136 888.88C686.31 892.734 682.455 895.304 680.656 894.533C678.858 894.019 675.26 895.304 672.433 897.617C669.607 899.672 668.836 900.7 670.892 899.672C673.204 898.387 673.975 898.901 672.69 900.957C671.663 902.499 669.864 903.27 668.579 902.499C665.238 900.443 648.022 909.437 649.82 912.264C650.591 913.805 650.077 914.062 648.279 913.035C644.681 910.722 634.659 913.548 636.458 916.632C637.229 917.66 635.173 918.174 632.09 917.146C628.749 916.375 627.207 916.889 628.235 918.431C629.52 920.23 627.978 920.744 624.381 919.716C620.526 918.945 619.498 919.202 620.783 921.514C622.325 923.827 620.783 924.084 615.387 923.056C609.734 921.771 608.963 922.028 612.046 924.341C615.13 926.397 613.588 926.654 605.622 925.626C598.427 924.341 596.372 924.598 598.941 926.654C601.768 928.453 599.455 928.709 591.232 927.939C585.065 927.168 581.211 927.425 582.752 928.709C584.551 929.737 569.647 930.765 549.861 930.765C530.331 930.765 516.712 929.994 520.053 928.966C523.393 927.682 520.567 927.425 513.115 928.196C506.176 928.966 501.808 928.453 503.607 927.425C505.663 926.14 502.065 924.084 493.842 922.028C486.904 920.23 479.709 919.716 478.167 920.744C476.368 921.771 475.854 921.514 476.625 919.973C477.653 918.431 475.341 916.118 471.229 914.576C467.375 913.292 461.978 910.979 459.152 909.951C454.526 908.152 454.526 908.409 457.61 912.264C459.409 914.576 461.978 915.861 463.263 915.09C464.548 914.319 465.576 914.833 465.576 916.375C465.576 919.716 501.037 944.898 505.92 944.898C507.718 944.898 509.26 946.183 509.26 947.725C509.26 949.01 510.545 949.524 511.83 948.753C513.372 947.982 514.399 948.239 514.399 949.781C514.399 952.35 524.164 956.719 528.019 955.691C529.046 955.434 529.817 956.205 529.817 957.233C529.817 958.261 532.387 959.288 535.471 959.545C538.297 959.802 541.895 961.601 542.923 963.4C544.207 965.199 545.235 965.713 545.235 964.428C545.235 963.143 547.034 963.657 549.09 965.456C551.146 967.254 552.944 967.768 552.944 966.74C552.944 965.713 554.743 966.226 556.799 968.025C558.854 969.824 560.653 970.338 560.653 969.31C560.653 968.282 562.452 968.796 564.508 970.595C567.591 973.165 568.362 973.165 568.362 970.338C568.362 968.025 569.133 967.768 570.418 969.567C574.529 975.734 607.935 981.387 640.313 981.644C662.926 981.644 681.941 979.332 701.985 974.449C711.492 972.137 712.777 971.623 721 968.282C725.111 966.74 730.251 964.942 732.563 964.685C734.876 964.171 744.127 960.059 753.378 955.177C762.628 950.295 770.851 946.697 772.136 946.954C773.164 947.211 773.935 946.183 773.935 944.898C773.935 943.357 775.734 942.329 777.789 942.329C779.845 942.329 781.644 941.044 781.644 939.759C781.644 938.217 782.929 937.189 784.728 937.189C786.526 937.189 790.638 934.106 793.978 929.994C797.319 926.14 799.375 924.855 798.347 926.911C797.319 928.966 799.632 927.168 803.229 923.056C806.827 918.688 813.508 912.007 818.133 908.152C822.759 904.041 825.071 901.471 823.272 902.499C820.446 904.041 820.446 903.27 823.015 899.158C824.814 896.075 827.127 894.276 828.155 895.047C829.183 895.561 831.752 893.248 834.065 889.651C836.378 886.053 837.406 883.226 836.378 883.226C835.35 883.226 836.635 881.685 839.461 879.886C842.288 877.573 843.316 875.004 842.031 872.948C840.746 870.635 841.003 870.121 842.802 871.406C845.628 872.948 846.913 869.864 846.142 864.468C846.142 863.44 847.17 862.669 848.455 862.669C849.74 862.669 850.768 861.898 850.511 860.613C849.74 858.044 856.164 839.028 858.991 835.431C860.276 833.889 860.533 831.833 859.505 831.062C858.734 830.035 858.991 827.979 860.533 826.18C861.817 824.381 862.845 816.415 862.845 808.192C862.588 800.226 863.359 794.316 864.644 795.087C865.672 795.601 866.443 791.49 866.443 785.836C866.443 780.183 865.415 775.044 863.873 774.016C862.331 773.245 862.331 770.161 863.873 766.564C865.158 763.223 865.672 759.883 864.901 759.112C864.13 758.341 863.359 755 862.845 751.66C862.588 748.319 861.303 743.951 860.276 742.152C859.248 740.353 858.991 738.298 859.762 737.527C860.533 736.756 860.019 734.7 858.734 732.901C857.449 731.36 855.907 727.762 855.393 724.935C854.879 722.366 853.337 717.483 851.539 714.657C849.997 711.573 849.483 708.49 850.254 707.462C851.025 706.691 850.511 705.92 848.712 705.92C846.913 705.92 846.399 704.635 847.17 703.35C847.941 701.809 847.427 700.781 845.885 700.781C844.344 700.781 843.573 699.753 844.344 698.725C845.115 697.44 843.316 694.1 840.746 691.016C837.92 687.932 835.607 684.592 835.607 683.05C835.607 681.765 833.808 679.966 831.495 679.196C829.44 678.425 828.155 676.626 828.926 675.341C829.697 674.056 826.356 669.945 821.474 666.09C816.334 662.493 812.994 658.381 813.765 657.353C814.279 656.069 812.48 652.985 809.139 650.415C803.743 645.533 803.743 645.533 807.084 650.672C808.882 653.499 806.827 651.7 801.944 646.818C797.319 641.935 792.437 637.824 791.152 637.824C789.867 637.824 787.554 635.768 785.755 633.456C783.957 630.886 781.644 629.601 780.873 630.629C779.845 631.4 778.56 630.115 777.533 627.802C776.762 625.49 774.963 624.462 773.678 625.233C772.393 626.004 771.365 625.233 771.365 623.691C771.365 622.149 770.337 621.635 768.796 622.406C767.511 623.177 766.226 622.663 766.226 621.121C766.226 619.579 765.198 619.065 763.656 619.836C762.372 620.607 761.087 620.093 761.087 618.552C761.087 617.01 760.059 616.496 758.517 617.267C757.232 618.038 755.947 617.524 755.947 615.982C755.947 614.44 754.92 613.926 753.378 614.697C752.093 615.468 750.808 614.954 750.808 613.669C750.808 612.127 750.037 611.1 749.009 611.356C745.412 612.384 719.972 604.675 719.972 602.62C719.972 601.592 718.173 601.335 716.118 602.106C714.062 603.134 710.721 602.62 708.923 601.078C707.381 599.793 703.526 599.536 700.957 600.307ZM712.263 871.663C706.096 878.087 700.443 883.226 699.672 883.226C698.901 883.226 703.526 878.087 709.694 871.663C715.861 865.239 721.514 860.1 722.285 860.1C723.056 860.1 718.43 865.239 712.263 871.663Z" fill="#969696"/>
</svg>
